<svg xmlns="http://www.w3.org/2000/svg" version="1.1" xmlns:xlink="http://www.w3.org/1999/xlink" viewBox="0 0 200 200"><rect width="200" height="200" fill="url('#gradient')"></rect><defs><linearGradient id="gradient" gradientTransform="rotate(45 0.5 0.5)"><stop offset="0%" stop-color="#ffffff"></stop><stop offset="100%" stop-color="#5b6ad8"></stop></linearGradient></defs><g><g fill="#000000" transform="matrix(6.5312072892938495,0,0,6.5312072892938495,16.202575858972608,146.44113974038996)" stroke="#ffffff" stroke-width="0.35"><path d="M3.77-14.22L6.59-3.87L9.42-14.22L13.25-14.22L8.47 0L4.72 0L-0.03-14.22L3.77-14.22ZM22.26-4.81L25.66-4.81Q25.60-3.33 24.86-2.19Q24.13-1.05 22.81-0.43Q21.48 0.20 19.79 0.20L19.79 0.20Q16.98 0.20 15.37-1.63Q13.76-3.46 13.76-6.79L13.76-6.79L13.76-7.49Q13.76-9.58 14.49-11.15Q15.21-12.71 16.58-13.57Q17.95-14.42 19.75-14.42L19.75-14.42Q22.33-14.42 23.91-13.06Q25.48-11.70 25.69-9.31L25.69-9.31L22.28-9.31Q22.24-10.61 21.62-11.17Q21.01-11.74 19.75-11.74L19.75-11.74Q18.47-11.74 17.87-10.78Q17.28-9.82 17.25-7.72L17.25-7.72L17.25-6.72Q17.25-4.44 17.82-3.47Q18.39-2.49 19.79-2.49L19.79-2.49Q20.97-2.49 21.59-3.05Q22.22-3.60 22.26-4.81L22.26-4.81Z"></path></g></g></svg>